/* XPM */
static char *a9966a8532bd4d79aae73b93a2329de4gVzlsIQXsikyhLed[] = {
/* columns rows colors chars-per-pixel */
"32 32 3 1 ",
"  c None",
". c black",
"X c white",
/* pixels */
"                                ",
"                                ",
"     ........................   ",
"     ..XXXXXXXXXXXXXXXXXXXXX..  ",
"      .XXXXXXXXXXXXXXXXXXXXXX.  ",
"      .XXXXXXXXXXXXXXXXXXXXXX.  ",
"      .XXXXXXXXXXXXXXXXXXXXXX.  ",
"       .XXX.............XXXXX.  ",
"       .XXXXXXXXXXXXXXXXXXXXXX. ",
"       .XXXXXXXXXXXXXXXXXXXXXX. ",
"       .XXXXXXXXXXXXXXXXXXXXXX. ",
"       .XXXXXXXXXXXXXXXXXXXXXX. ",
"       .XXXX............XXXXXX. ",
"       .XXXXXXXXXXXXXXX....XXX. ",
"       .XXXXXXXXXXXXXXXXXXXXXX. ",
"       .XXXXXXXXXXXXXXXXXXXXXX. ",
"       .XXXXXXXXXXXXXXXXXXXXXX. ",
"       .XXX......XXXXXXXXXXXXX. ",
"       .XXXXXXXXX.........XXXX. ",
"       .XXXXXXXXXXXXXXXXXXXXX.  ",
"       .XXXXXXXXXXXXXXXXXXXXX.  ",
"       .XXXXXXXXXXXXXXXXXXXXX.  ",
"      .XXX................XX.   ",
"      .XXXXXXXXXXXXXXXXXXXXX.   ",
"      .XXXXXXXXXXXXXXXXXXXX..   ",
"      .XXX.......XXXXXXXXXX.    ",
"     ..XXXXXXXXXX.......XXX.    ",
"     .XXXXXXXXXXXXXXXXXXXX.     ",
"    ..XXXXXXXXXXXXXXXXXXXX.     ",
"    .................XXXX.      ",
"                    ......      ",
"                                "
};
