/* XPM */
static char *_beae9e8ca73440be8f2a373c8a72886T7hfwOThymTqpBK9[] = {
/* columns rows colors chars-per-pixel */
"32 32 2 1 ",
"  c None",
". c black",
/* pixels */
"                                ",
"                                ",
"                                ",
"            ........            ",
"         ...        ...         ",
"        .              .        ",
"       .                .       ",
"      .                  .      ",
"     .                    .     ",
"    .                      .    ",
"   .                        .   ",
"   .                        .   ",
"   .        .       .       .   ",
"  .         .       .        .  ",
"  .         .       .        .  ",
"  .         .       .        .  ",
"  .                          .  ",
"  .                          .  ",
"  .                          .  ",
"  .                          .  ",
"  .      .                   .  ",
"   .     ..           ..    .   ",
"   .       ...       ..     .   ",
"   .         .........      .   ",
"    .                      .    ",
"     .                    .     ",
"      .                  .      ",
"       .                .       ",
"        .              .        ",
"         ...        ...         ",
"            ........            ",
"                                "
};
