/* XPM */
static char *fcef8065db8e499391e91f009112b216gLAwqzmJH2E3PrIS[] = {
/* columns rows colors chars-per-pixel */
"32 32 2 1 ",
"  c None",
". c black",
/* pixels */
"                                ",
"                                ",
"                                ",
"                                ",
"                                ",
"                                ",
"                                ",
"           ...                  ",
"         .....                  ",
"        ......                  ",
"      .......                   ",
"     ......                     ",
"    ......                      ",
"  ......                        ",
" .............................. ",
" .............................. ",
" .............................. ",
"  ......                        ",
"    ......                      ",
"     ......                     ",
"      .......                   ",
"        ......                  ",
"         .....                  ",
"           ...                  ",
"                                ",
"                                ",
"                                ",
"                                ",
"                                ",
"                                ",
"                                ",
"                                "
};
