/* XPM */
static char *_e28455701fb4006fefb0353e7ea6a6d8O6BlP8ObbzACZHO[] = {
/* columns rows colors chars-per-pixel */
"32 32 2 1 ",
"  c None",
". c black",
/* pixels */
"                                ",
"                                ",
"                                ",
"                                ",
"                                ",
"                                ",
"                                ",
"                  ...           ",
"                  .....         ",
"                  ......        ",
"                   .......      ",
"                     ......     ",
"                      ......    ",
"                        ......  ",
" .............................. ",
" .............................. ",
" .............................. ",
"                        ......  ",
"                      ......    ",
"                     ......     ",
"                   .......      ",
"                  ......        ",
"                  .....         ",
"                  ...           ",
"                                ",
"                                ",
"                                ",
"                                ",
"                                ",
"                                ",
"                                ",
"                                "
};
